<!-- Zen Flow Obstacles - Various shapes -->
<svg xmlns="http://www.w3.org/2000/svg" viewBox="0 0 200 200" width="200" height="200">
  <defs>
    <linearGradient id="obstacleGrad" x1="0%" y1="0%" x2="100%" y2="100%">
      <stop offset="0%" style="stop-color:#FF6B6B;stop-opacity:0.8" />
      <stop offset="100%" style="stop-color:#C44569;stop-opacity:0.9" />
    </linearGradient>
    <filter id="shadow">
      <feDropShadow dx="2" dy="2" stdDeviation="3" flood-opacity="0.3"/>
    </filter>
  </defs>
  
  <!-- Static Rectangle -->
  <g id="static-rect">
    <rect x="10" y="10" width="40" height="40" fill="url(#obstacleGrad)" filter="url(#shadow)" rx="4"/>
  </g>
  
  <!-- Moving Circle -->
  <g id="moving-circle">
    <circle cx="80" cy="30" r="20" fill="url(#obstacleGrad)" filter="url(#shadow)"/>
    <circle cx="80" cy="30" r="15" fill="#FF8A80" opacity="0.6"/>
  </g>
  
  <!-- Rotating Triangle -->
  <g id="rotating-triangle">
    <polygon points="130,10 150,40 110,40" fill="url(#obstacleGrad)" filter="url(#shadow)"/>
  </g>
  
  <!-- Pulsing Ring -->
  <g id="pulsing-ring">
    <circle cx="30" cy="80" r="25" fill="none" stroke="url(#obstacleGrad)" stroke-width="8" filter="url(#shadow)"/>
    <circle cx="30" cy="80" r="15" fill="none" stroke="#FF8A80" stroke-width="4" opacity="0.7"/>
  </g>
  
  <!-- Complex Geometric -->
  <g id="geometric">
    <path d="M80 60 L100 80 L80 100 L60 80 Z" fill="url(#obstacleGrad)" filter="url(#shadow)"/>
    <path d="M80 70 L90 80 L80 90 L70 80 Z" fill="#FF8A80" opacity="0.8"/>
  </g>
  
  <!-- Spiky Obstacle -->
  <g id="spiky">
    <polygon points="130,60 140,70 150,60 140,80 150,90 140,100 130,90 120,100 110,90 120,80 110,70 120,60" 
             fill="url(#obstacleGrad)" filter="url(#shadow)"/>
  </g>
</svg>
